<svg width="268" height="74" viewBox="0 0 268 74" fill="none" xmlns="http://www.w3.org/2000/svg">
<g clip-path="url(#clip0_1_174)">
<path d="M90.6585 73.9448L48.7071 1.90522C48.012 0.773134 46.761 0 45.3432 0C43.9253 0 42.6465 0.773134 41.9515 1.90522L31.5261 20.0463C31.5261 20.0463 49.1797 30.3731 62.8577 51.9381C56.5191 45.7806 47.9842 42.0254 38.6154 42.0254C15.5129 42.0254 0 73.9724 0 73.9724H20.6004C23.6307 60.8567 34.2228 51.1649 46.8444 51.1649C47.2058 51.1649 47.595 51.1649 47.9564 51.1925C48.0676 51.1925 48.2066 51.2201 48.3178 51.2201C48.5681 51.2201 48.8183 51.2478 49.0685 51.2754C49.2075 51.2754 49.3465 51.303 49.4855 51.3306C49.7079 51.3582 49.9303 51.3858 50.1527 51.4134C50.2917 51.441 50.4307 51.441 50.5975 51.4687C50.8199 51.4963 51.0145 51.5239 51.2369 51.5791C51.3759 51.6067 51.5149 51.6343 51.6817 51.6619C51.9042 51.7172 52.0988 51.7448 52.3212 51.8C52.4602 51.8276 52.5992 51.8552 52.7382 51.9104C52.9606 51.9657 53.2108 52.0209 53.4332 52.1037C53.5444 52.1313 53.6556 52.159 53.7668 52.1866C54.1004 52.297 54.434 52.3799 54.7676 52.4903C54.851 52.5179 54.9622 52.5455 55.0456 52.6007C55.2959 52.6836 55.5461 52.7664 55.7685 52.8769C55.9075 52.9321 56.0465 52.9873 56.1855 53.0425C56.3801 53.1254 56.5747 53.2082 56.7693 53.291C56.9083 53.3463 57.0473 53.4291 57.2141 53.4843C57.3809 53.5672 57.5755 53.65 57.7423 53.7328C57.8813 53.8157 58.0481 53.8709 58.1871 53.9537C58.3539 54.0366 58.5208 54.1194 58.6876 54.2299C58.8266 54.3127 58.9934 54.3955 59.1324 54.4784C59.2992 54.5612 59.466 54.6716 59.605 54.7545C59.744 54.8373 59.883 54.9202 60.0498 55.0306C60.2166 55.141 60.3834 55.2515 60.5224 55.3343C60.6614 55.4172 60.8004 55.5 60.9394 55.6104C61.2174 55.8037 61.4954 55.997 61.7456 56.1903C61.8847 56.3007 62.0515 56.4112 62.1905 56.5216C62.3295 56.6321 62.4685 56.7149 62.5797 56.8254C62.7187 56.9358 62.8855 57.0739 63.0245 57.2119C63.1357 57.3224 63.2747 57.4328 63.3859 57.5157C63.5249 57.6537 63.6917 57.7918 63.8307 57.9299C63.9419 58.0403 64.0531 58.1507 64.1643 58.2336C64.3033 58.3716 64.4701 58.5097 64.6091 58.6478C64.7203 58.7582 64.8315 58.8687 64.9149 58.9791C65.0539 59.1172 65.2207 59.2828 65.3598 59.4209C65.471 59.5313 65.5544 59.6142 65.6378 59.7246C65.7768 59.8903 65.9436 60.056 66.0826 60.2216C66.1382 60.3045 66.1938 60.3597 66.2772 60.4425C66.8332 61.0776 67.3614 61.7403 67.8618 62.4306C67.9174 62.5134 68.0008 62.6239 68.0564 62.7067C68.1954 62.9 68.3344 63.0933 68.4734 63.2866C68.5569 63.397 68.6124 63.5075 68.6959 63.6179C68.8349 63.8112 68.9461 64.0045 69.0851 64.2254C69.1407 64.3358 69.2241 64.4463 69.2797 64.5567C69.4187 64.75 69.5299 64.9709 69.6411 65.1642C69.6967 65.2746 69.7523 65.3851 69.8357 65.4955C69.9469 65.7164 70.0859 65.9373 70.1971 66.1582C70.2527 66.2411 70.2805 66.3515 70.3361 66.4343C70.7531 67.2627 71.1701 68.1187 71.5315 69.0022C71.5315 69.0299 71.5593 69.0575 71.5593 69.0851C72.1432 70.5209 72.6436 72.0396 73.005 73.6134C73.0328 73.7515 73.0606 73.8896 73.0884 74L90.6585 73.9448Z" fill="#2E2E2E" fill-opacity="0.51"/>
<g opacity="0.25">
<path d="M64.6369 58.6202C64.7481 58.7306 64.8593 58.8411 64.9427 58.9515C65.0817 59.0896 65.2485 59.2552 65.3875 59.3933C65.4987 59.5037 65.5821 59.5866 65.6655 59.697C65.8045 59.8627 65.9713 60.0284 66.1103 60.194C66.166 60.2769 66.2215 60.3321 66.305 60.4149C66.861 61.05 67.3892 61.7127 67.8896 62.403C67.9452 62.4858 68.0286 62.5963 68.0842 62.6791C68.2232 62.8724 68.3622 63.0657 68.5012 63.259C68.5012 63.2866 68.529 63.3142 68.5568 63.3142C62.2182 53.512 51.4037 47.0784 39.1157 47.0784C22.7966 47.0784 9.06304 58.4545 4.97632 73.9448H20.6282C23.6585 60.8291 34.2506 51.1373 46.8722 51.1373C47.2336 51.1373 47.6228 51.1373 47.9842 51.1649C48.0954 51.1649 48.2344 51.1925 48.3456 51.1925C48.5958 51.1925 48.846 51.2202 49.0962 51.2478C49.2352 51.2478 49.3742 51.2754 49.5133 51.303C49.7357 51.3306 49.9581 51.3582 50.1805 51.3858C50.3195 51.4134 50.4585 51.4134 50.6253 51.4411C50.8477 51.4687 51.0423 51.4963 51.2647 51.5515C51.4037 51.5791 51.5427 51.6067 51.7095 51.6343C51.9319 51.6896 52.1265 51.7172 52.3489 51.7724C52.4879 51.8 52.6269 51.8276 52.7659 51.8828C52.9884 51.9381 53.2386 51.9933 53.461 52.0761C53.5722 52.1037 53.6834 52.1314 53.7946 52.159C54.1282 52.2694 54.4618 52.3523 54.7954 52.4627C54.8788 52.4903 54.99 52.5179 55.0734 52.5731C55.3236 52.656 55.5738 52.7388 55.7962 52.8493C55.9352 52.9045 56.0742 52.9597 56.2132 53.0149C56.4079 53.0978 56.6025 53.1806 56.7971 53.2634C56.9361 53.3187 57.0751 53.4015 57.2419 53.4567C57.4087 53.5396 57.6033 53.6224 57.7701 53.7052C57.9091 53.7881 58.0759 53.8433 58.2149 53.9261C58.3817 54.009 58.5485 54.0918 58.7153 54.2023C58.8543 54.2851 59.0211 54.3679 59.1601 54.4508C59.3269 54.5336 59.4938 54.644 59.6328 54.7269C59.7718 54.8097 59.9108 54.8925 60.0776 55.003C60.2444 55.1134 60.4112 55.2239 60.5502 55.3067C60.6892 55.3896 60.8282 55.4724 60.9672 55.5828C61.2452 55.7761 61.5232 55.9694 61.7734 56.1627C61.9124 56.2731 62.0792 56.3836 62.2182 56.494C62.3572 56.6045 62.4962 56.6873 62.6074 56.7978C62.7464 56.9082 62.9133 57.0463 63.0523 57.1843C63.1635 57.2948 63.3025 57.4052 63.4137 57.4881C63.5527 57.6261 63.7195 57.7642 63.8585 57.9022C63.9697 58.0127 64.0809 58.1231 64.1921 58.206C64.3311 58.344 64.4701 58.4821 64.6369 58.6202Z" fill="url(#paint0_linear_1_174)"/>
</g>
<path d="M109.396 73.9447C97.9702 73.9447 91.4092 66.1582 91.4092 54.5888C91.4092 42.8813 97.8034 34.3768 109.257 34.3768C112.288 34.3768 115.318 34.9567 116.819 35.5089V17.147H121.073V71.3216C118.988 72.5917 114.095 73.9447 109.396 73.9447ZM116.819 38.9328C115.513 38.4358 112.149 37.8559 109.48 37.8559C100.417 37.8559 95.6627 44.9246 95.6627 54.5059C95.6627 64.0044 100.472 70.438 109.341 70.438C112.065 70.438 115.596 69.6649 116.819 68.947V38.9328Z" fill="#2E2E2E" fill-opacity="0.51"/>
<path d="M134.945 26.1484C133.277 26.1484 131.915 24.8506 131.915 23.2215C131.915 21.5648 133.277 20.2947 134.945 20.2947C136.613 20.2947 137.892 21.5924 137.892 23.2215C137.892 24.8506 136.613 26.1484 134.945 26.1484ZM132.805 73.2268V34.7081H137.058V73.2268H132.805Z" fill="#2E2E2E" fill-opacity="0.51"/>
<path d="M157.547 73.9447C153.655 73.9447 149.207 72.8679 146.455 71.294L148.123 68.0082C150.291 69.3059 154.295 70.438 157.464 70.438C163.163 70.438 166.972 67.6492 166.972 63.2865C166.972 58.6477 163.219 56.9358 158.187 55.0582C152.432 52.9044 147.456 50.5574 147.456 43.9029C147.456 38.3253 151.904 33.9626 159.771 33.9626C163.886 33.9626 167.556 35.0947 170.002 36.6134L168.334 39.7612C166.527 38.5462 163.219 37.4141 160.049 37.4141C154.795 37.4141 151.765 40.341 151.765 43.9306C151.765 48.5694 155.296 50.088 160.049 51.8552C166.082 54.147 171.337 56.3559 171.337 63.3694C171.364 69.7201 166.11 73.9447 157.547 73.9447Z" fill="#2E2E2E" fill-opacity="0.51"/>
<path d="M193.327 73.5858C187.572 73.5858 183.458 70.438 183.458 63.9492V37.9388H177.425V34.7358H183.458V25.1544L187.572 23.5806V34.7358H196.357V37.9388H187.572V63.8112C187.572 68.091 190.519 69.8858 193.966 69.8858C194.828 69.8858 195.773 69.7477 196.329 69.5268V73.1716C195.69 73.4477 194.689 73.5858 193.327 73.5858Z" fill="#2E2E2E" fill-opacity="0.51"/>
<path d="M234.055 52.2141L206.838 56.2178C207.422 65.6611 212.732 70.438 220.933 70.438C224.825 70.438 228.996 69.444 231.442 68.0081L232.888 71.294C230.302 72.785 225.687 73.9447 220.794 73.9447C209.702 73.9447 202.724 67.0141 202.724 53.9261C202.724 42.0529 208.979 33.9902 219.126 33.9902C228.106 33.9902 234.083 39.7887 234.083 49.9223C234.111 50.6402 234.111 51.3581 234.055 52.2141ZM219.154 37.3589C211.537 37.3589 206.838 43.5716 206.644 53.0149L230.024 49.6462C229.941 41.2798 225.632 37.3589 219.154 37.3589Z" fill="#2E2E2E" fill-opacity="0.51"/>
<path d="M258.798 73.9447C250.958 73.9447 242.451 68.2843 242.451 53.9261C242.451 39.5678 250.93 33.9902 258.798 33.9902C262.384 33.9902 265.776 35.1223 268 36.641L266.499 39.7887C264.636 38.491 261.828 37.5798 259.076 37.5798C253.182 37.5798 246.76 41.8596 246.76 53.9537C246.76 66.0477 253.238 70.3275 259.076 70.3275C261.8 70.3275 264.608 69.3887 266.499 68.1186L268 71.3492C265.637 72.8678 262.384 73.9447 258.798 73.9447Z" fill="#2E2E2E" fill-opacity="0.51"/>
</g>
<defs>
<linearGradient id="paint0_linear_1_174" x1="4.97635" y1="60.5116" x2="68.5568" y2="60.5116" gradientUnits="userSpaceOnUse">
<stop stop-color="white"/>
<stop offset="0.1683" stop-color="#BCD0E4"/>
<stop offset="0.3332" stop-color="#83A7CD"/>
<stop offset="0.4909" stop-color="#5486BA"/>
<stop offset="0.6401" stop-color="#306CAB"/>
<stop offset="0.7787" stop-color="#1559A0"/>
<stop offset="0.9027" stop-color="#064E9A"/>
<stop offset="1" stop-color="#004A98"/>
</linearGradient>
<clipPath id="clip0_1_174">
<rect width="268" height="74" fill="white"/>
</clipPath>
</defs>
</svg>
