<svg width="85" height="28" viewBox="0 0 85 28" fill="none" xmlns="http://www.w3.org/2000/svg">
<path d="M84.8509 8.70964C79.978 6.04914 68.0058 1.38626 42.493 0C16.9662 1.40026 4.99396 6.06314 0.135043 8.70964C-0.145009 15.3609 0.00901859 21.7601 0.611132 27.8512H84.3888C84.991 21.7601 85.145 15.3609 84.8649 8.70964H84.8509ZM24.8217 10.404H13.9836V13.0364H22.1332C22.8893 13.0364 23.5194 13.3025 24.0375 13.8206C24.5556 14.3387 24.8217 14.9688 24.8217 15.7109V21.382C24.8217 22.1382 24.5556 22.7683 24.0375 23.2864C23.5194 23.8045 22.8753 24.0705 22.1332 24.0705H8.84468L12.5134 19.8697H20.6209V17.2372H12.4574C11.7012 17.2372 11.0711 16.9712 10.553 16.4531C10.0349 15.935 9.76885 15.3049 9.76885 14.5627V8.89167C9.76885 8.14953 10.0349 7.51941 10.553 6.98731C11.0711 6.45521 11.7152 6.18916 12.4574 6.18916H24.8217V10.39V10.404ZM42.1709 21.6761C42.1709 22.3482 41.9329 22.9083 41.4568 23.3704C40.9807 23.8325 40.4066 24.0705 39.7485 24.0705H29.8066C28.3083 24.0705 27.1041 22.8663 27.1041 21.368V6.18916H39.7485C40.4206 6.18916 40.9807 6.42721 41.4568 6.88929C41.9329 7.35138 42.1709 7.92549 42.1709 8.58361V21.6621V21.6761ZM59.5062 24.0845H46.8478C46.1757 24.0845 45.6156 23.8465 45.1535 23.3844C44.6914 22.9223 44.4534 22.3482 44.4534 21.6901V6.21717H48.6541V19.8977H59.5062V24.0985V24.0845ZM76.1413 21.6761C76.1413 22.3482 75.9033 22.9083 75.4272 23.3704C74.9511 23.8325 74.377 24.0705 73.7189 24.0705H63.777C62.2787 24.0705 61.0745 22.8663 61.0745 21.368V6.18916H73.7189C74.391 6.18916 74.9511 6.42721 75.4272 6.88929C75.9033 7.35138 76.1413 7.92549 76.1413 8.58361V21.6621V21.6761Z" fill="black" fill-opacity="0.33"/>
</svg>
