<svg width="25" height="40" viewBox="0 0 25 40" fill="none" xmlns="http://www.w3.org/2000/svg">
<path d="M11.0975 39.9999C7.20363 39.9999 2.75351 38.9226 0 37.348L1.66879 34.0607C3.83822 35.359 7.84334 36.4916 11.014 36.4916C16.7158 36.4916 20.5262 33.7016 20.5262 29.337C20.5262 24.6961 16.7714 22.9834 11.7372 21.1049C5.97985 18.9502 1.00129 16.6022 1.00129 9.94473C1.00129 4.36463 5.4514 0 13.3225 0C17.4389 0 21.1102 1.1326 23.5578 2.65193L21.889 5.80109C20.0811 4.58563 16.7714 3.45303 13.6007 3.45303C8.34397 3.45303 5.31234 6.3812 5.31234 9.97236C5.31234 14.6132 8.84461 16.1326 13.6007 17.9005C19.6361 20.1933 24.8928 22.4033 24.8928 29.4198C24.9206 35.7734 19.664 39.9999 11.0975 39.9999Z" fill="#2E2E2E" fill-opacity="0.51"/>
</svg>
