<svg width="32" height="40" viewBox="0 0 32 40" fill="none" xmlns="http://www.w3.org/2000/svg">
<path d="M31.3672 18.2446L4.1192 22.2529C4.70368 31.7069 10.0197 36.4892 18.2302 36.4892C22.1268 36.4892 26.3016 35.494 28.7509 34.0566L30.1982 37.3461C27.6098 38.8389 22.9896 39.9999 18.0911 39.9999C6.98594 39.9999 0 33.0614 0 19.9585C0 8.07185 6.2623 0 16.4211 0C25.411 0 31.395 5.8051 31.395 15.9502C31.4228 16.6689 31.4228 17.3877 31.3672 18.2446ZM16.449 3.37249C8.82287 3.37249 4.11919 9.59223 3.92437 19.0463L27.3314 15.6738C27.2479 7.29784 22.9339 3.37249 16.449 3.37249Z" fill="#2E2E2E" fill-opacity="0.51"/>
</svg>
