<svg width="64" height="27" viewBox="0 0 64 27" fill="none" xmlns="http://www.w3.org/2000/svg">
<path d="M59.9571 11.5992C60.0689 11.7102 60.1807 11.8212 60.2645 11.9322C60.4042 12.0709 60.5718 12.2374 60.7115 12.3761C60.8232 12.4871 60.9071 12.5704 60.9909 12.6814C61.1306 12.8479 61.2982 13.0144 61.4379 13.1809C61.4938 13.2641 61.5497 13.3196 61.6335 13.4029C62.1923 14.0411 62.7231 14.7071 63.226 15.4008C63.2819 15.484 63.3657 15.595 63.4216 15.6783C63.5613 15.8725 63.701 16.0668 63.8407 16.261C63.8407 16.2888 63.8686 16.3165 63.8965 16.3165C57.5264 6.46556 46.6582 0 34.3091 0C17.9089 0 4.10704 11.4327 0 27H15.7297C18.775 13.8191 29.4198 4.07913 42.1041 4.07913C42.4673 4.07913 42.8585 4.07913 43.2217 4.10688C43.3334 4.10688 43.4731 4.13463 43.5849 4.13463C43.8363 4.13463 44.0878 4.16238 44.3392 4.19013C44.4789 4.19013 44.6186 4.21788 44.7583 4.24563C44.9818 4.27338 45.2053 4.30113 45.4289 4.32888C45.5685 4.35662 45.7082 4.35662 45.8759 4.38437C46.0994 4.41212 46.295 4.43987 46.5185 4.49537C46.6582 4.52312 46.7979 4.55087 46.9655 4.57862C47.189 4.63411 47.3846 4.66186 47.6081 4.71736C47.7478 4.74511 47.8875 4.77286 48.0272 4.82836C48.2507 4.88386 48.5021 4.93936 48.7257 5.02261C48.8374 5.05035 48.9492 5.0781 49.0609 5.10585C49.3962 5.21685 49.7315 5.3001 50.0667 5.41109C50.1505 5.43884 50.2623 5.46659 50.3461 5.52209C50.5976 5.60534 50.849 5.68858 51.0725 5.79958C51.2122 5.85508 51.3519 5.91058 51.4916 5.96608C51.6872 6.04932 51.8828 6.13257 52.0783 6.21582C52.218 6.27132 52.3577 6.35457 52.5254 6.41007C52.693 6.49331 52.8886 6.57656 53.0562 6.65981C53.1959 6.74305 53.3635 6.79855 53.5032 6.8818C53.6709 6.96505 53.8385 7.0483 54.0061 7.15929C54.1458 7.24254 54.3135 7.32579 54.4532 7.40903C54.6208 7.49228 54.7884 7.60328 54.9281 7.68653C55.0678 7.76977 55.2075 7.85302 55.3751 7.96402C55.5428 8.07501 55.7104 8.18601 55.8501 8.26926C55.9898 8.35251 56.1295 8.43575 56.2692 8.54675C56.5486 8.741 56.828 8.93524 57.0794 9.12948C57.2191 9.24048 57.3868 9.35148 57.5264 9.46248C57.6661 9.57347 57.8058 9.65672 57.9176 9.76771C58.0573 9.87871 58.2249 10.0175 58.3646 10.1562C58.4764 10.2672 58.6161 10.3782 58.7278 10.4614C58.8675 10.6002 59.0352 10.7389 59.1748 10.8777C59.2866 10.9887 59.3984 11.0997 59.5101 11.1829C59.6498 11.3217 59.7895 11.4604 59.9571 11.5992Z" fill="url(#paint0_linear_1_179)"/>
<defs>
<linearGradient id="paint0_linear_1_179" x1="2.7939e-05" y1="13.5" x2="63.8966" y2="13.5" gradientUnits="userSpaceOnUse">
<stop stop-color="white"/>
<stop offset="0.1683" stop-color="#BCD0E4"/>
<stop offset="0.3332" stop-color="#83A7CD"/>
<stop offset="0.4909" stop-color="#5486BA"/>
<stop offset="0.6401" stop-color="#306CAB"/>
<stop offset="0.7787" stop-color="#1559A0"/>
<stop offset="0.9027" stop-color="#064E9A"/>
<stop offset="1" stop-color="#004A98"/>
</linearGradient>
</defs>
</svg>
