<svg width="129" height="40" viewBox="0 0 129 40" fill="none" xmlns="http://www.w3.org/2000/svg">
<path d="M11.912 39.9803H18.1184C17.9236 38.1294 17.7845 36.2508 17.6731 34.3443C17.3531 28.7641 17.367 22.9751 17.7149 16.9913C21.3748 14.4168 33.6068 7.84854 64.7227 6.17864C95.8385 7.84854 108.071 14.4168 111.73 16.9913C112.092 22.9751 112.106 28.7641 111.772 34.3443C111.661 36.2508 111.508 38.1294 111.327 39.9803H129L117.965 34.3443C118.313 28.0265 118.257 21.2634 117.714 14.0272C117.714 14.0272 108.488 2.29612 64.7366 0C20.9851 2.29612 11.7589 14.0272 11.7589 14.0272C11.2162 21.2773 11.1605 28.0405 11.5084 34.3443L0 39.9803H11.9398H11.912Z" fill="black" fill-opacity="0.33"/>
</svg>
