<svg width="91" height="74" viewBox="0 0 91 74" fill="none" xmlns="http://www.w3.org/2000/svg">
<path d="M90.6585 73.9448L48.7071 1.90522C48.012 0.773134 46.761 0 45.3432 0C43.9253 0 42.6465 0.773134 41.9515 1.90522L31.5261 20.0463C31.5261 20.0463 49.1797 30.3731 62.8577 51.9381C56.5191 45.7806 47.9842 42.0254 38.6154 42.0254C15.5129 42.0254 0 73.9724 0 73.9724H20.6004C23.6307 60.8567 34.2228 51.1649 46.8444 51.1649C47.2058 51.1649 47.595 51.1649 47.9564 51.1925C48.0676 51.1925 48.2066 51.2201 48.3178 51.2201C48.5681 51.2201 48.8183 51.2478 49.0685 51.2754C49.2075 51.2754 49.3465 51.303 49.4855 51.3306C49.7079 51.3582 49.9303 51.3858 50.1527 51.4134C50.2917 51.441 50.4307 51.441 50.5975 51.4687C50.8199 51.4963 51.0145 51.5239 51.2369 51.5791C51.3759 51.6067 51.5149 51.6343 51.6817 51.6619C51.9042 51.7172 52.0988 51.7448 52.3212 51.8C52.4602 51.8276 52.5992 51.8552 52.7382 51.9104C52.9606 51.9657 53.2108 52.0209 53.4332 52.1037C53.5444 52.1313 53.6556 52.159 53.7668 52.1866C54.1004 52.297 54.434 52.3799 54.7676 52.4903C54.851 52.5179 54.9622 52.5455 55.0456 52.6007C55.2959 52.6836 55.5461 52.7664 55.7685 52.8769C55.9075 52.9321 56.0465 52.9873 56.1855 53.0425C56.3801 53.1254 56.5747 53.2082 56.7693 53.291C56.9083 53.3463 57.0473 53.4291 57.2141 53.4843C57.3809 53.5672 57.5755 53.65 57.7423 53.7328C57.8813 53.8157 58.0481 53.8709 58.1871 53.9537C58.3539 54.0366 58.5208 54.1194 58.6876 54.2299C58.8266 54.3127 58.9934 54.3955 59.1324 54.4784C59.2992 54.5612 59.466 54.6716 59.605 54.7545C59.744 54.8373 59.883 54.9202 60.0498 55.0306C60.2166 55.141 60.3834 55.2515 60.5224 55.3343C60.6614 55.4172 60.8004 55.5 60.9394 55.6104C61.2174 55.8037 61.4954 55.997 61.7456 56.1903C61.8847 56.3007 62.0515 56.4112 62.1905 56.5216C62.3295 56.6321 62.4685 56.7149 62.5797 56.8254C62.7187 56.9358 62.8855 57.0739 63.0245 57.2119C63.1357 57.3224 63.2747 57.4328 63.3859 57.5157C63.5249 57.6537 63.6917 57.7918 63.8307 57.9299C63.9419 58.0403 64.0531 58.1507 64.1643 58.2336C64.3033 58.3716 64.4701 58.5097 64.6091 58.6478C64.7203 58.7582 64.8315 58.8687 64.9149 58.9791C65.0539 59.1172 65.2207 59.2828 65.3598 59.4209C65.471 59.5313 65.5544 59.6142 65.6378 59.7246C65.7768 59.8903 65.9436 60.056 66.0826 60.2216C66.1382 60.3045 66.1938 60.3597 66.2772 60.4425C66.8332 61.0776 67.3614 61.7403 67.8618 62.4306C67.9174 62.5134 68.0008 62.6239 68.0564 62.7067C68.1954 62.9 68.3344 63.0933 68.4734 63.2866C68.5569 63.397 68.6124 63.5075 68.6959 63.6179C68.8349 63.8112 68.9461 64.0045 69.0851 64.2254C69.1407 64.3358 69.2241 64.4463 69.2797 64.5567C69.4187 64.75 69.5299 64.9709 69.6411 65.1642C69.6967 65.2746 69.7523 65.3851 69.8357 65.4955C69.9469 65.7164 70.0859 65.9373 70.1971 66.1582C70.2527 66.2411 70.2805 66.3515 70.3361 66.4343C70.7531 67.2627 71.1701 68.1187 71.5315 69.0022C71.5315 69.0299 71.5593 69.0575 71.5593 69.0851C72.1432 70.5209 72.6436 72.0396 73.005 73.6134C73.0328 73.7515 73.0606 73.8896 73.0884 74L90.6585 73.9448Z" fill="#2E2E2E" fill-opacity="0.51"/>
</svg>
