<svg width="56" height="25" viewBox="0 0 56 25" fill="none" xmlns="http://www.w3.org/2000/svg">
<path d="M28 24.9045C32.7417 22.6251 41.1417 17.7286 49.19 8.79397C51.6663 6.05025 53.9457 3.10955 56 0H0C2.06834 3.10955 4.33367 6.05025 6.81005 8.79397C14.8583 17.7146 23.2583 22.6111 28 24.9045ZM28 5.95176C29.3508 5.95176 30.4483 7.04925 30.4483 8.4C30.4483 9.75076 29.998 10.0181 29.3226 10.4683V13.9578C29.3226 14.0704 29.2382 14.1548 29.1256 14.1548H26.8603C26.7477 14.1548 26.6633 14.0704 26.6633 13.9578V10.4683C25.9879 10.0322 25.5377 9.27236 25.5377 8.4C25.5377 7.04925 26.6352 5.95176 27.9859 5.95176H28Z" fill="black" fill-opacity="0.33"/>
</svg>
