<svg width="150" height="150" viewBox="0 0 150 150" fill="none" xmlns="http://www.w3.org/2000/svg">
<path d="M22.5417 57.2084H28.7361C28.5417 55.3612 28.4028 53.4862 28.2917 51.5834C27.9722 46.014 27.9861 40.2362 28.3333 34.264C31.9861 31.6946 44.1944 25.139 75.25 23.4723C106.306 25.139 118.514 31.6946 122.167 34.264C122.528 40.2362 122.542 46.014 122.208 51.5834C122.097 53.4862 121.944 55.3612 121.764 57.2084H139.403L128.389 51.5834C128.736 45.2779 128.681 38.5279 128.139 31.3057C128.139 31.3057 118.931 19.5973 75.2639 17.3057C31.5972 19.5973 22.3889 31.3057 22.3889 31.3057C21.8472 38.5418 21.7917 45.2918 22.1389 51.5834L10.6528 57.2084H22.5694H22.5417Z" fill="black" fill-opacity="0.33"/>
<path d="M108.819 97.0557H108.167C105.722 100.958 102.958 104.611 99.9167 108C89.9861 119.028 79.4444 124.292 75.2222 126.097C71 124.292 60.4722 119.028 50.5278 108C47.4722 104.611 44.7222 100.958 42.2778 97.0557H10.625L38.6111 102.681C54.25 125.903 75.2361 132.695 75.2361 132.695C75.2361 132.695 96.2083 125.903 111.861 102.681L139.389 97.0557H108.833H108.819Z" fill="black" fill-opacity="0.33"/>
<path d="M104.194 39.125H97.6111V48.5278H104.194V39.125Z" fill="black" fill-opacity="0.33"/>
<path d="M117.014 37.4446C112.181 34.8057 100.306 30.1807 75 28.8057C49.6806 30.1946 37.8056 34.8196 32.9861 37.4446C32.7083 44.0418 32.8611 50.389 33.4583 56.4307H116.556C117.153 50.389 117.306 44.0418 117.028 37.4446H117.014ZM57.4722 39.1251H46.7222V41.7362H54.8056C55.5556 41.7362 56.1806 42.0001 56.6945 42.514C57.2083 43.0279 57.4722 43.6529 57.4722 44.389V50.014C57.4722 50.764 57.2083 51.389 56.6945 51.9029C56.1806 52.4168 55.5417 52.6807 54.8056 52.6807H41.625L45.2639 48.514H53.3056V45.9029H45.2083C44.4583 45.9029 43.8333 45.639 43.3195 45.1251C42.8056 44.6112 42.5417 43.9862 42.5417 43.2501V37.6251C42.5417 36.889 42.8056 36.264 43.3195 35.7362C43.8333 35.2084 44.4722 34.9446 45.2083 34.9446H57.4722V39.1112V39.1251ZM74.6806 50.3057C74.6806 50.9723 74.4444 51.5279 73.9722 51.9862C73.5 52.4446 72.9306 52.6807 72.2778 52.6807H62.4167C60.9306 52.6807 59.7361 51.4862 59.7361 50.0001V34.9446H72.2778C72.9445 34.9446 73.5 35.1807 73.9722 35.639C74.4444 36.0973 74.6806 36.6668 74.6806 37.3196V50.2918V50.3057ZM91.875 52.6946H79.3194C78.6528 52.6946 78.0972 52.4584 77.6389 52.0001C77.1806 51.5418 76.9445 50.9723 76.9445 50.3196V34.9723H81.1111V48.5418H91.875V52.7084V52.6946ZM108.375 50.3057C108.375 50.9723 108.139 51.5279 107.667 51.9862C107.194 52.4446 106.625 52.6807 105.972 52.6807H96.1111C94.625 52.6807 93.4306 51.4862 93.4306 50.0001V34.9446H105.972C106.639 34.9446 107.194 35.1807 107.667 35.639C108.139 36.0973 108.375 36.6668 108.375 37.3196V50.2918V50.3057Z" fill="black" fill-opacity="0.33"/>
<path d="M70.4861 39.125H63.9028V48.5278H70.4861V39.125Z" fill="black" fill-opacity="0.33"/>
<path d="M75 121.625C79.6805 119.375 87.9722 114.542 95.9166 105.722C98.3611 103.014 100.611 100.111 102.639 97.0417H47.3611C49.4028 100.111 51.6389 103.014 54.0833 105.722C62.0278 114.528 70.3194 119.361 75 121.625ZM75 102.917C76.3333 102.917 77.4166 104 77.4166 105.333C77.4166 106.667 76.9722 106.931 76.3055 107.375V110.82C76.3055 110.931 76.2222 111.014 76.1111 111.014H73.875C73.7639 111.014 73.6805 110.931 73.6805 110.82V107.375C73.0139 106.945 72.5694 106.195 72.5694 105.333C72.5694 104 73.6528 102.917 74.9861 102.917H75Z" fill="black" fill-opacity="0.33"/>
<path d="M29.7778 60.6667H21.9028V94.1945H29.7778V60.6667Z" fill="black" fill-opacity="0.33"/>
<path d="M107.597 75.0277L99.7222 65.8472V94.1944H107.597V75.0277Z" fill="black" fill-opacity="0.33"/>
<path d="M128.097 60.6667H120.222V72.7084L109.778 60.6667H99.7222L128.097 94.1945V60.6667Z" fill="black" fill-opacity="0.33"/>
<path d="M67.5417 60.6667V89.1251C67.5417 91.9306 69.8056 94.1945 72.6111 94.1945H91.25C92.5 94.1945 93.5695 93.7501 94.4584 92.8751C95.3472 92.0001 95.7917 90.9306 95.7917 89.6806V65.1667C95.7917 63.9167 95.3472 62.8473 94.4584 61.9723C93.5695 61.0973 92.5 60.6528 91.25 60.6528H67.5417V60.6667ZM87.875 86.3056H75.4306V68.5417H87.875V86.3056Z" fill="black" fill-opacity="0.33"/>
<path d="M42.0278 83.3056V68.5417H54.8195V75.4028H48.9167L42.0278 83.3195H48.7778L54.9167 94.1945H64.7084L58.5278 83.2084C59.7084 83 60.6945 82.4306 61.5 81.5001C62.2917 80.5695 62.6945 79.4862 62.6945 78.2639V65.7084C62.6945 64.3195 62.2084 63.1389 61.2222 62.1389C60.2361 61.1389 59.0556 60.6528 57.6389 60.6528H34.1389V94.1806H42.0139V83.3056H42.0278Z" fill="black" fill-opacity="0.33"/>
</svg>
